HIERARCHY
ROOT hip
{
  OFFSET 0 0 0
  CHANNELS 6 Xposition Yposition Zposition Zrotation Yrotation Xrotation
  JOINT abdomen
  {
    OFFSET 0 20.6881 -0.73152
    CHANNELS 3 Zrotation Xrotation Yrotation
    JOINT chest
    {
      OFFSET 0 11.7043 -0.48768
      CHANNELS 3 Zrotation Xrotation Yrotation
      JOINT neck
      {
        OFFSET 0 22.1894 -2.19456
        CHANNELS 3 Zrotation Xrotation Yrotation
        JOINT head
        {
          OFFSET -0.24384 7.07133 1.2192
          CHANNELS 3 Zrotation Xrotation Yrotation
          JOINT leftEye
          {
            OFFSET 4.14528 8.04674 8.04672
            CHANNELS 3 Zrotation Xrotation Yrotation
            End Site
            {
              OFFSET 1 0 0
            }
          }
          JOINT rightEye
          {
            OFFSET -3.6576 8.04674 8.04672
            CHANNELS 3 Zrotation Xrotation Yrotation
            End Site
            {
              OFFSET 1 0 0
            }
          }
        }
      }
      JOINT rCollar
      {
        OFFSET -2.68224 19.2634 -4.8768
        CHANNELS 3 Zrotation Xrotation Yrotation
        JOINT rShldr
        {
          OFFSET -8.77824 -1.95073 1.46304
          CHANNELS 3 Zrotation Xrotation Yrotation
          JOINT rForeArm
          {
            OFFSET -28.1742 -1.7115 0.48768
            CHANNELS 3 Zrotation Xrotation Yrotation
            JOINT rHand
            {
              OFFSET -22.5879 0.773209 7.07136
              CHANNELS 3 Zrotation Xrotation Yrotation
              JOINT rThumb1
              {
                OFFSET -1.2192 -0.487915 3.41376
                CHANNELS 3 Zrotation Xrotation Yrotation
                JOINT rThumb2
                {
                  OFFSET -3.37035 -0.52449 3.41376
                  CHANNELS 3 Zrotation Xrotation Yrotation
                  End Site
                  {
                    OFFSET -1.78271 -1.18214 1.43049
                  }
                }
              }
              JOINT rIndex1
              {
                OFFSET -7.75947 0.938293 5.60832
                CHANNELS 3 Zrotation Xrotation Yrotation
                JOINT rIndex2
                {
                  OFFSET -2.54057 -0.884171 1.56538
                  CHANNELS 3 Zrotation Xrotation Yrotation
                  End Site
                  {
                    OFFSET -1.62519 -0.234802 1.16502
                  }
                }
              }
              JOINT rMid1
              {
                OFFSET -8.24714 1.18213 3.41376
                CHANNELS 3 Zrotation Xrotation Yrotation
                JOINT rMid2
                {
                  OFFSET -3.10165 -0.590103 1.0647
                  CHANNELS 3 Zrotation Xrotation Yrotation
                  End Site
                  {
                    OFFSET -2.48547 -0.328903 0.83742
                  }
                }
              }
              JOINT rRing1
              {
                OFFSET -8.82822 0.546677 1.51678
                CHANNELS 3 Zrotation Xrotation Yrotation
                JOINT rRing2
                {
                  OFFSET -2.60934 -0.819778 -0.0198488
                  CHANNELS 3 Zrotation Xrotation Yrotation
                  End Site
                  {
                    OFFSET -2.33842 -0.294052 0.168128
                  }
                }
              }
              JOINT rPinky1
              {
                OFFSET -8.27202 -0.0477905 -0.4584
                CHANNELS 3 Zrotation Xrotation Yrotation
                JOINT rPinky2
                {
                  OFFSET -1.82734 -0.647385 -0.700984
                  CHANNELS 3 Zrotation Xrotation Yrotation
                  End Site
                  {
                    OFFSET -1.69225 -0.51767 -0.607171
                  }
                }
              }
            }
          }
        }
      }
      JOINT lCollar
      {
        OFFSET 2.68224 19.2634 -4.8768
        CHANNELS 3 Zrotation Xrotation Yrotation
        JOINT lShldr
        {
          OFFSET 8.77824 -1.95073 1.46304
          CHANNELS 3 Zrotation Xrotation Yrotation
          JOINT lForeArm
          {
            OFFSET 28.1742 -1.7115 0.48768
            CHANNELS 3 Zrotation Xrotation Yrotation
            JOINT lHand
            {
              OFFSET 22.5879 0.773209 7.07136
              CHANNELS 3 Zrotation Xrotation Yrotation
              JOINT lThumb1
              {
                OFFSET 1.2192 -0.487915 3.41376
                CHANNELS 3 Zrotation Xrotation Yrotation
                JOINT lThumb2
                {
                  OFFSET 3.37035 -0.52449 3.41376
                  CHANNELS 3 Zrotation Xrotation Yrotation
                  End Site
                  {
                    OFFSET 1.78271 -1.18214 1.43049
                  }
                }
              }
              JOINT lIndex1
              {
                OFFSET 7.75947 0.938293 5.60832
                CHANNELS 3 Zrotation Xrotation Yrotation
                JOINT lIndex2
                {
                  OFFSET 2.54057 -0.884171 1.56538
                  CHANNELS 3 Zrotation Xrotation Yrotation
                  End Site
                  {
                    OFFSET 1.62519 -0.234802 1.16502
                  }
                }
              }
              JOINT lMid1
              {
                OFFSET 8.24714 1.18213 3.41376
                CHANNELS 3 Zrotation Xrotation Yrotation
                JOINT lMid2
                {
                  OFFSET 3.10165 -0.590103 1.0647
                  CHANNELS 3 Zrotation Xrotation Yrotation
                  End Site
                  {
                    OFFSET 2.48547 -0.328903 0.83742
                  }
                }
              }
              JOINT lRing1
              {
                OFFSET 8.82822 0.546677 1.51678
                CHANNELS 3 Zrotation Xrotation Yrotation
                JOINT lRing2
                {
                  OFFSET 2.60934 -0.819778 -0.0198488
                  CHANNELS 3 Zrotation Xrotation Yrotation
                  End Site
                  {
                    OFFSET 2.33842 -0.294052 0.168128
                  }
                }
              }
              JOINT lPinky1
              {
                OFFSET 8.27202 -0.0477905 -0.4584
                CHANNELS 3 Zrotation Xrotation Yrotation
                JOINT lPinky2
                {
                  OFFSET 1.82734 -0.647385 -0.700984
                  CHANNELS 3 Zrotation Xrotation Yrotation
                  End Site
                  {
                    OFFSET 1.69225 -0.51767 -0.607171
                  }
                }
              }
            }
          }
        }
      }
    }
  }
  JOINT rButtock
  {
    OFFSET -8.77824 4.35084 1.2192
    CHANNELS 3 Zrotation Xrotation Yrotation
    JOINT rThigh
    {
      OFFSET 0 -1.70687 -2.19456
      CHANNELS 3 Zrotation Xrotation Yrotation
      JOINT rShin
      {
        OFFSET 0 -36.8199 0.73152
        CHANNELS 3 Zrotation Xrotation Yrotation
        JOINT rFoot
        {
          OFFSET 0.73152 -45.1104 -5.12064
          CHANNELS 3 Zrotation Xrotation Yrotation
          End Site
          {
            OFFSET -1.1221 -3.69964 12.103
          }
        }
      }
    }
  }
  JOINT lButtock
  {
    OFFSET 8.77824 4.35084 1.2192
    CHANNELS 3 Zrotation Xrotation Yrotation
    JOINT lThigh
    {
      OFFSET 0 -1.70687 -2.19456
      CHANNELS 3 Zrotation Xrotation Yrotation
      JOINT lShin
      {
        OFFSET 0 -36.8199 0.73152
        CHANNELS 3 Zrotation Xrotation Yrotation
        JOINT lFoot
        {
          OFFSET -0.73152 -45.1104 -5.12064
          CHANNELS 3 Zrotation Xrotation Yrotation
          End Site
          {
            OFFSET 1.1221 -3.69964 12.103
          }
        }
      }
    }
  }
}
MOTION
Frames:	7
Frame Time:	0.03333
21.6864 49.8087 -17.9509 -161.914415 -67.298595 173.878509 0.285791 16.011825 172.008852 -10.334214 5.093679 -175.383896 2.315701 41.210702 174.426556 -5.157139 61.920349 125.192218 -1.235093 0.012496 -1.159286 15.176209 5.19237 37.593978 0.846262 -26.582697 -8.885661 -117.986954 -24.865878 -157.38056 0.772748 -14.796509 -143.911082 173.671305 -20.293425 148.286308 -174.133336 -15.36335 88.665842 -92.509831 -0.566823 20.30821 -121.194721 25.78333 111.692879 -171.199713 -12.423952 127.743015 -142.349256 40.194747 141.996177 -13.291674 67.94276 5.559435 -5.760887 0.002773 -8.567736 11.04631 -7.01617 -3.406474 0.668243 26.959117 -0.503602 -126.602052 21.237662 -138.845808 -7.438826 -22.494371 1.076096 108.966119 -5.627788 169.004934 9.292781 33.911841 132.009312 174.081936 3.043082 -143.947819 -89.404052 -50.598859 -44.58151 164.78791 4.155531 -132.764175 2.862714 2.164576 3.584959 -0.854847 12.196239 0.725056 2.684151 -12.015074 7.171362 43.399385 48.931993 -42.022699 17.187271 -38.394401 30.750049 -24.836363 -23.687893 -11.906351 18.413064 -1.100209 18.6872 139.329304 15.558429 156.946521 15.542987 -2.952971 14.338578 -72.482822 -38.662822 -180.0 -85.819719 -52.984623 4.834111 61.883221 65.359011 40.199604 65.376535 43.514487 38.000758 -108.335735 -55.01068 155.003661 -128.830303 -67.324849 -40.474773 -162.162757 45.851544 -110.640076
21.828400000000002 50.2509 -17.8614 -162.948213 -66.317539 175.085647 0.507215 20.806261 -0.0 9.179834 -10.930685 -2.527916 6.091668 23.555698 48.165397 -39.892493 -23.09 -119.258649 -3.657204 -0.119117 3.72972 13.269238 4.211538 35.084903 -7.707841 35.768204 6.643226 113.37298 -65.054799 58.418897 59.948133 56.421987 65.490706 -29.511256 51.316872 18.426736 -10.194581 13.084192 4.147921 23.459828 -12.909849 -14.85449 -86.019333 47.613244 79.548219 88.68806 -70.596182 53.397652 -119.148845 63.627641 118.551459 -17.341553 62.374451 3.158623 -18.351741 -39.513304 -26.148525 -150.482395 -47.306235 -175.232552 -167.849851 39.877292 -137.86621 -53.798311 72.437409 87.602452 152.541238 -5.221902 -158.722864 -139.367049 0.570359 -177.136706 4.008796 6.720434 -106.302275 1.658883 -24.200416 2.221364 1.839654 -7.618511 0.349008 63.752174 47.456841 -71.215414 148.013126 -5.642378 -123.365535 165.487508 -30.197275 -119.422118 162.573302 8.438062 -145.1246 124.394751 68.153465 -113.646286 1.164598 0.995933 11.270757 -91.956806 -78.227223 -77.926156 138.464834 -13.142294 113.409283 155.66634 34.198945 132.039445 -0.033728 -5.147447 0.040164 -52.704019 -49.72705 120.162822 76.641079 -60.11752 -154.725775 -171.617139 -37.765749 -49.75949 66.917806 45.096545 39.046808 -107.485859 -50.105054 -22.218826 112.576011 56.12895 -18.867547 -13.006205 -59.643706 -82.833305
22.0593 51.3929 -17.521800000000002 -166.706535 -61.62929 179.909775 -1.093708 15.405995 174.959834 -10.105517 4.552588 -178.340961 8.51798 27.550746 78.008073 -49.087496 -3.536636 -138.82494 2.399336 0.026057 1.244227 16.059748 4.413268 30.553889 -151.853911 24.333607 159.905465 149.396628 -10.722266 147.843634 -91.297946 -32.196704 64.141361 36.148717 -67.746805 28.517745 -76.397754 40.756607 43.123026 -0.011828 -6.078446 36.608521 -25.200889 40.729914 21.684787 -168.863247 -2.303252 105.496511 -146.639726 12.120886 154.217153 -59.483918 81.838954 64.493037 -48.543875 -62.157308 -61.004487 -73.690489 -83.103523 -93.816469 11.136369 37.282043 -2.904129 -138.390736 59.840692 -156.467642 -8.752883 -32.944771 1.833158 -57.438651 -9.706866 20.039342 -166.828654 -44.820976 -29.272055 166.632695 23.156938 -139.541197 120.475483 34.121513 -65.590434 177.825285 -29.9078 -54.066717 162.57507 -36.469854 -128.093618 0.177771 29.563111 -0.475624 5.012028 0.508102 4.764839 167.7298 -6.980696 -130.433594 0.432198 26.975671 1.99287 86.701097 68.533681 -87.551477 101.77405 -37.824315 86.614893 117.677161 -23.616718 123.879862 -37.972302 9.723969 -35.819801 42.479792 -56.806156 156.761228 86.767808 -36.025376 165.592911 110.545838 -61.269979 -156.876093 -7.5699 7.288446 10.722301 84.917847 -67.31886 -94.690952 -114.967973 -76.310745 25.487316 66.988052 36.520143 26.507717
22.314999999999998 52.8489 -17.0715 -168.687178 -58.632665 -177.118039 -0.404219 14.750936 -151.234178 -5.030254 8.174726 147.62213 9.551296 29.613383 96.435945 -50.396979 10.788353 -149.696078 9.573372 0.512282 6.111896 18.203863 5.958969 35.995991 -62.270168 -80.889864 -83.918037 118.338002 57.915293 -108.603614 94.44549 36.922581 88.428385 -151.077882 53.161973 131.873713 2.398875 -1.512293 -2.393937 -111.934987 -9.877376 115.952797 -19.39803 36.305099 16.889418 -97.080853 45.714948 64.806438 -3.962646 60.064882 8.448991 -112.229437 76.225561 82.389012 -145.915668 -10.57541 -171.695487 2.80066 47.579021 10.134483 -82.658518 -43.044837 -76.447918 75.117813 69.681032 -47.161052 5.903518 24.153291 -11.838043 106.365325 -2.082221 -145.582718 -81.296647 -28.074628 122.266969 78.068925 65.042309 -58.25655 -86.350969 -50.099424 -40.050381 129.691495 44.841501 -87.299235 -5.243212 -20.06557 9.315633 151.361953 -0.095425 -105.054093 -1.27937 -22.341109 5.433579 12.121559 26.964077 -18.737895 134.833004 -36.345953 151.508371 133.767703 -20.819027 168.823812 -49.717218 72.051794 24.574983 133.233788 -40.671665 119.539799 3.802913 -4.6064 -4.580858 -49.480463 -56.803343 125.571787 87.596231 -64.205639 120.311564 -112.255077 49.845492 -156.941209 73.598554 54.468906 45.811822 -112.638495 -34.119332 -56.453556 -106.221635 68.886808 10.59291 65.878024 -37.993048 136.836593
22.541 54.3543 -16.6604 -169.863665 -55.94712 -175.441647 -1.667331 14.114627 -173.193102 -8.76379 4.759156 169.536102 9.649418 28.12107 94.40409 -49.1903 9.219756 -147.774462 14.832802 1.459961 11.18093 18.55413 6.871732 40.362798 -6.849447 -61.337998 -24.82537 -52.132519 -54.489235 -81.691885 21.00869 -50.851267 -126.218691 179.196514 -7.214768 148.48171 -103.138051 39.085628 59.556982 -152.218518 -24.890116 65.492387 1.693244 13.145724 -0.291334 -169.231121 -9.428504 104.938086 -142.745725 -66.094099 168.578771 -54.805074 52.701146 71.057122 -1.096724 -1.500329 -1.878937 -157.500514 1.52663 -178.34872 -119.080531 -28.690488 -112.467747 -18.068521 -10.445906 -13.054068 162.646778 -49.83044 -164.0102 -34.691817 52.208753 67.643307 -172.723181 -83.423941 -32.785967 171.623753 7.966632 -142.518903 122.430675 29.135573 -69.684572 88.815113 -15.587924 -54.237372 94.952281 45.476002 -75.006492 -50.132275 -63.433727 -15.259095 158.52388 12.008282 -139.169405 -0.734356 0.288541 6.866937 -1.238885 25.667631 3.056222 -1.984903 -18.580021 -8.710129 7.37412 0.254336 10.151385 147.913663 22.499076 160.224224 110.231171 61.228996 56.375275 -178.675442 12.173495 34.557047 65.824325 60.223677 -151.024421 134.119562 47.342537 -44.463635 -9.243799 3.098694 12.564071 65.109765 -66.353385 -113.026479 -108.814048 -76.093956 -21.314739 -138.1644 77.30912 -128.272931
22.714100000000002 55.8137 -16.3919 -170.514417 -53.380619 -174.752213 -1.815379 14.213086 -172.644449 -8.750739 4.356332 168.663229 -10.65646 33.934134 -112.730623 50.127172 30.811081 42.931894 18.294228 2.565116 15.831814 14.617152 5.494849 41.028045 -153.986663 -48.643384 177.759669 -33.807814 -25.175264 -21.72362 87.400733 -38.245665 -90.200771 -158.304888 45.070959 135.365235 172.147439 -22.56993 91.162132 -49.738896 -19.28522 -14.666676 28.131454 -41.394061 -11.805585 -65.918885 41.510106 54.513953 3.634227 41.455478 3.619596 -15.316907 -17.628606 -9.027804 -145.734599 0.25171 -179.044714 7.588456 29.687139 4.306432 2.208114 3.623976 -4.237857 -47.598569 -49.129544 -59.691283 -9.495429 -44.589646 3.070037 100.163713 -27.930187 151.496047 -73.398554 -24.8296 133.79209 92.199197 64.733853 -71.321626 94.769203 34.658706 -53.457806 155.583579 -38.296308 -74.269273 1.57987 -11.132965 7.271365 -19.545505 -5.124479 -11.52583 164.07537 -4.761454 -140.736656 162.026855 9.109392 -145.415336 139.085238 -20.07911 162.191333 -29.97809 31.045235 13.534487 -58.697679 75.718022 24.960522 -88.921793 79.405007 65.054382 91.172702 40.262674 52.171403 -150.797216 6.348843 -2.905729 28.8031 73.570522 -114.073559 156.199048 -64.296446 -96.41185 154.740328 74.242934 0.0 -141.751812 -4.706883 -0.0 90.540317 57.241044 -0.854997 64.211369 -83.182229 -24.505636
22.8483 57.1395 -16.311400000000003 -170.863024 -50.557291 -174.636343 -2.485341 19.320171 4.377608 9.123558 -8.345018 -7.693524 -8.047811 19.917956 -27.760514 31.052329 -29.527415 -20.346501 20.439328 3.590649 19.726101 6.203248 2.019964 36.044136 -6.238964 32.936564 6.22596 39.877018 23.768199 25.099852 -16.717457 -60.633516 89.631201 -8.029669 7.480537 1.159928 -179.69342 -12.239234 93.070798 -86.18984 18.972794 16.572165 -160.86785 -56.231062 125.965276 -143.832413 -7.134047 117.611711 -16.756136 56.541992 24.47376 -33.371549 66.420557 11.091846 -66.930316 72.991747 83.736619 -152.414909 -42.62874 -178.977265 -43.404146 -45.123476 -45.615587 88.972147 75.85005 -54.318445 152.019514 6.23316 -156.273068 51.353527 17.649561 -6.179843 89.174864 27.46231 106.601309 -115.877506 -79.941879 -97.719418 -5.591197 -3.939701 -3.470214 129.920219 -37.606259 -131.72197 40.322726 37.003727 -22.054101 -91.145814 -54.071011 -56.01997 78.928086 57.811982 -68.151604 10.876015 25.056027 -11.160126 -3.400366 -0.811014 7.946801 153.807302 32.772308 -155.170753 0.770586 0.527091 7.056837 10.137853 -3.457971 -9.630774 0.214702 0.921169 -13.120618 -33.594111 -61.316367 -0.0 52.489174 57.087034 18.93591 -20.122946 -79.003965 -112.41681 -174.292131 70.494722 -20.211327 -149.632423 1.684784 -0.0 97.611767 70.585169 71.826257 -4.984926 29.14765 -150.114635
